# xmcd
#
# Track frame offsets:
#	150
#	19444
#	40380
#	52320
#	71355
#	89554
#	105618
#	122397
#	140159
#	156057
#	175109
#	189593
#	204768
#	216236
#	234284
#
# Disc length: 3272 seconds
#
# Revision: 0
# Processed by: cddbd v1.5.2PL0 Copyright (c) Steve Scherf et al.
# Submitted via: dBpowerAMP V4.0
#
DISCID=d50cc60f
DTITLE=COREY HARRIS and HENRY BUTTLER - Vudu Menz
DYEAR=2001
DGENRE=Blues
TTITLE0=Let'em Roll
TTITLE1=If I Was Your Man
TTITLE2=Sugar Daddy
TTITLE3=There's No Substitute For Love
TTITLE4=King Cotton
TTITLE5=Mulberry Row
TTITLE6=Down Home Livin'
TTITLE7=Voodoo Man
TTITLE8=Song Of the Pipelayer
TTITLE9=If You Let a Man Kick You Once
TTITLE10=L'Esprit De James
TTITLE11=Shake What Your Mama Gave You
TTITLE12=Didn't My Lord Deliver Daniel?
TTITLE13=What Man Have Done
TTITLE14=Why Don't You Live So God Can Use You?
EXTD=
EXTT0=
EXTT1=
EXTT2=
EXTT3=
EXTT4=
EXTT5=
EXTT6=
EXTT7=
EXTT8=
EXTT9=
EXTT10=
EXTT11=
EXTT12=
EXTT13=
EXTT14=
PLAYORDER=
